HIERARCHY
ROOT Hips
{
	OFFSET 0.000000 0.000000 0.000000 
	CHANNELS 6 Xposition Yposition Zposition Zrotation Yrotation Xrotation
	JOINT LeftUpLeg
	{
		OFFSET 1.363060 -1.794630 0.839290 
		CHANNELS 3 Zrotation Yrotation Xrotation
		JOINT LeftLeg
		{
			OFFSET 2.448110 -6.726130 0.000000 
			CHANNELS 3 Zrotation Yrotation Xrotation
			JOINT LeftFoot
			{
				OFFSET 2.562200 -7.039590 0.000000 
				CHANNELS 3 Zrotation Yrotation Xrotation
				JOINT LeftToeBase
				{
					OFFSET 0.157640 -0.433110 2.322550 
					CHANNELS 3 Zrotation Yrotation Xrotation
					End Site
					{
						OFFSET 0.000000 0.000000 0.000000 
					}
				}
			}
		}
	}
	JOINT RightUpLeg
	{
		OFFSET -1.305520 -1.794630 0.839290 
		CHANNELS 3 Zrotation Yrotation Xrotation
		JOINT RightLeg
		{
			OFFSET -2.542530 -6.985550 0.000000 
			CHANNELS 3 Zrotation Yrotation Xrotation
			JOINT RightFoot
			{
				OFFSET -2.568260 -7.056230 0.000000 
				CHANNELS 3 Zrotation Yrotation Xrotation
				JOINT RightToeBase
				{
					OFFSET -0.164730 -0.452590 2.363150 
					CHANNELS 3 Zrotation Yrotation Xrotation
					End Site
					{
						OFFSET 0.000000 0.000000 0.000000 
					}
				}
			}
		}
	}
	JOINT Spine
	{
		OFFSET 0.028270 2.035590 -0.193380 
		CHANNELS 3 Zrotation Yrotation Xrotation
		JOINT Spine1
		{
			OFFSET 0.056720 2.048850 -0.042750 
			CHANNELS 3 Zrotation Yrotation Xrotation
			JOINT Neck1
			{
				OFFSET -0.054170 1.746240 0.172020 
				CHANNELS 3 Zrotation Yrotation Xrotation
				JOINT Head
				{
					OFFSET 0.104070 1.761360 -0.123970 
					CHANNELS 3 Zrotation Yrotation Xrotation
					End Site
					{
						OFFSET 0.000000 0.000000 0.000000 
					}
				}
			}
			JOINT LeftArm
			{
				OFFSET 3.362410 1.200890 -0.311210 
				CHANNELS 3 Zrotation Yrotation Xrotation
				JOINT LeftForeArm
				{
					OFFSET 4.983000 -0.000000 -0.000000 
					CHANNELS 3 Zrotation Yrotation Xrotation
					JOINT LeftHand
					{
						OFFSET 3.483560 -0.000000 -0.000000 
						CHANNELS 3 Zrotation Yrotation Xrotation
						JOINT LeftHandIndex1
						{
							OFFSET 0.715260 -0.000000 -0.000000 
							CHANNELS 3 Zrotation Yrotation Xrotation
							End Site
							{
								OFFSET 0.000000 0.000000 0.000000 
							}
						}
					}
				}
			}
			JOINT RightArm
			{
				OFFSET -3.136600 1.374050 -0.404650 
				CHANNELS 3 Zrotation Yrotation Xrotation
				JOINT RightForeArm
				{
					OFFSET -5.241900 -0.000000 -0.000000 
					CHANNELS 3 Zrotation Yrotation Xrotation
					JOINT RightHand
					{
						OFFSET -3.444170 -0.000000 -0.000000 
						CHANNELS 3 Zrotation Yrotation Xrotation
						JOINT RightHandIndex1
						{
							OFFSET -0.622530 -0.000000 -0.000000 
							CHANNELS 3 Zrotation Yrotation Xrotation
							End Site
							{
								OFFSET 0.000000 0.000000 0.000000 
							}
						}
					}
				}
			}
		}
	}
}
MOTION
Frames: 10
Frame Time: 0.041667
-0.032323 16.997836 3.942719 -5.787223 -13.991166 7.628059 -23.407956 -13.352481 -2.059250 0.156388 9.026958 26.075392 -0.720362 17.733111 -27.231149 0.043500 1.345600 3.700200 32.211648 15.051921 -4.814341 0.984763 -8.144711 22.558896 1.034812 -12.547285 -15.424998 -0.001500 -0.246700 0.677700 1.117304 -1.799176 -5.302721 -3.058151 -1.217436 -2.809436 4.605278 -8.780063 13.557242 -1.782400 -3.475300 11.989200 -102.647975 9.962558 0.012459 25.530104 -33.983025 -5.298428 0.022922 3.956534 23.388830 -7.125000 0.000000 0.000000 91.743781 -4.205774 9.864793 -23.935348 33.386247 -4.527178 1.003864 -3.466235 8.691741 7.125000 0.000000 0.000000 
-0.029286 16.998378 3.942610 -5.803065 -13.961339 7.641493 -23.386086 -13.321025 -2.098777 0.157512 9.032115 26.083739 -0.720117 17.696595 -27.182140 0.042200 1.325700 3.645500 32.220023 15.070655 -4.802375 0.987087 -8.139708 22.543726 1.040644 -12.587071 -15.440047 -0.001400 -0.241200 0.662600 1.111680 -1.796170 -5.292543 -3.104830 -1.218676 -2.759785 4.631404 -8.799116 13.563359 -1.759400 -3.480500 11.994700 -102.628308 9.957495 -0.121791 25.480958 -33.903839 -5.262784 0.082414 3.879155 24.652516 -7.125000 0.000000 0.000000 91.728956 -4.255015 10.374197 -23.713235 33.295149 -4.585671 0.278785 -3.511039 13.176849 7.125000 0.000000 0.000000 
-0.026466 16.999246 3.941634 -5.753866 -13.938834 7.647814 -23.436622 -13.339162 -2.136412 0.155185 9.040010 26.087350 -0.720251 17.687145 -27.164094 0.042100 1.323800 3.640300 32.156776 15.119069 -4.802771 0.987132 -8.133935 22.530006 1.046434 -12.630136 -15.472706 -0.002100 -0.296200 0.813800 1.115329 -1.822321 -5.301986 -3.069636 -1.230308 -2.820283 4.638623 -8.794800 13.595908 -1.752900 -3.476000 12.027200 -102.706753 10.004621 -0.391770 25.415594 -33.833902 -5.237530 0.110648 3.859324 25.447351 -7.125000 0.000000 0.000000 91.708889 -4.273451 10.461326 -23.380171 32.949843 -4.501328 -0.283213 -3.230484 17.660745 7.125000 0.000000 0.000000 
-0.023971 16.999572 3.940441 -5.775621 -13.923807 7.671049 -23.409083 -13.347022 -2.172483 0.155698 9.045148 26.093724 -0.719244 17.668642 -27.147711 0.042800 1.336000 3.673800 32.170483 15.057366 -4.874847 0.990503 -8.138587 22.520458 1.078145 -12.739251 -15.316399 -0.000100 -0.054300 0.149200 1.111261 -1.807665 -5.295836 -3.123858 -1.225263 -2.801973 4.643207 -8.812093 13.601777 -1.757200 -3.477400 12.031200 -102.704307 9.949255 -0.571406 25.370170 -33.799828 -5.239734 0.075579 3.923491 24.748577 -7.125000 0.000000 0.000000 91.806242 -4.178766 10.005708 -23.117595 32.736224 -4.469855 -0.536966 -3.154064 21.946745 7.125000 0.000000 0.000000 
-0.021368 16.999897 3.939465 -5.766723 -13.904739 7.682476 -23.416308 -13.350908 -2.203405 0.154450 9.049542 26.094733 -0.718918 17.651973 -27.125951 0.043100 1.339500 3.683600 32.150686 15.015416 -4.929449 0.991214 -8.142313 22.517208 1.103309 -12.830022 -15.206094 -0.000400 0.123600 -0.339600 1.108839 -1.806929 -5.292811 -3.148414 -1.225559 -2.802087 4.656194 -8.825929 13.612268 -1.748200 -3.480300 12.038900 -102.722774 9.918949 -0.747458 25.321226 -33.762029 -5.237989 0.059039 3.970688 24.314634 -7.125000 0.000000 0.000000 91.872343 -4.109660 9.585558 -22.843385 32.484451 -4.432470 -0.867193 -2.976470 26.243082 7.125000 0.000000 0.000000 
-0.018656 17.000114 3.938380 -5.755346 -13.886514 7.692102 -23.426535 -13.357886 -2.235896 0.154301 9.056434 26.102660 -0.718137 17.636835 -27.109949 0.043300 1.343200 3.693700 32.128516 14.960025 -4.986844 0.992895 -8.143483 22.507014 1.131132 -12.926273 -15.073590 -0.002600 0.326800 -0.897900 1.106402 -1.804068 -5.289629 -3.175152 -1.224430 -2.806021 4.669079 -8.841480 13.620156 -1.739900 -3.484100 12.042800 -102.735710 9.875966 -0.884194 25.271311 -33.735992 -5.246663 0.029423 4.050736 23.348559 -7.125000 0.000000 0.000000 91.965397 -4.008965 8.926879 -22.543376 32.180049 -4.362435 -1.113905 -2.754546 30.357600 7.125000 0.000000 0.000000 
-0.016161 17.000331 3.937296 -5.745288 -13.868967 7.699415 -23.436149 -13.362924 -2.262657 0.153390 9.061082 26.105392 -0.718246 17.625254 -27.092350 0.043500 1.345700 3.700500 32.108287 14.911418 -5.038689 0.993917 -8.145589 22.500917 1.155359 -13.010576 -14.957965 -0.006100 0.506200 -1.390900 1.104224 -1.798878 -5.286593 -3.203350 -1.221871 -2.815562 4.682369 -8.858512 13.625038 -1.731900 -3.488700 12.042500 -102.741865 9.826249 -0.969246 25.225922 -33.725109 -5.266378 -0.005999 4.155299 21.947659 -7.125000 0.000000 0.000000 92.074137 -3.888260 8.107499 -22.226887 31.839888 -4.270312 -1.288393 -2.517508 34.054674 7.125000 0.000000 0.000000 
-0.013558 17.000548 3.935994 -5.736218 -13.851211 7.705528 -23.444380 -13.365265 -2.288972 0.152620 9.065246 26.107737 -0.718661 17.613703 -27.072719 0.043500 1.345400 3.699700 32.090253 14.883348 -5.073747 0.995247 -8.145431 22.491726 1.173677 -13.077823 -14.878311 -0.009400 0.627300 -1.723800 1.102851 -1.794166 -5.283979 -3.227568 -1.219101 -2.829547 4.696525 -8.875458 13.629302 -1.723400 -3.493400 12.041600 -102.745957 9.772663 -1.012779 25.187486 -33.729074 -5.295885 -0.041836 4.274777 20.288291 -7.125000 0.000000 0.000000 92.180602 -3.756335 7.229719 -21.905890 31.483418 -4.164663 -1.394379 -2.295580 37.005549 7.125000 0.000000 0.000000 
-0.011172 17.000873 3.934584 -5.729693 -13.834123 7.711610 -23.450104 -13.367873 -2.313684 0.151799 9.068917 26.109387 -0.719954 17.605301 -27.052132 0.043200 1.342200 3.690800 32.075966 14.874801 -5.093263 0.996955 -8.143100 22.479583 1.186707 -13.130308 -14.832708 -0.011600 0.695200 -1.910600 1.102037 -1.788261 -5.281988 -3.250108 -1.215693 -2.847578 4.708754 -8.892419 13.633768 -1.718300 -3.497400 12.040800 -102.746869 9.718977 -1.024302 25.151957 -33.739352 -5.329622 -0.068479 4.394952 18.605694 -7.125000 0.000000 0.000000 92.277595 -3.622319 6.373537 -21.576070 31.112654 -4.047010 -1.442425 -2.101243 38.944316 7.125000 0.000000 0.000000 
-0.008786 17.001416 3.933174 -5.727532 -13.816816 7.718351 -23.450749 -13.369411 -2.337455 0.150979 9.071814 26.109856 -0.721296 17.596014 -27.030539 0.043100 1.340100 3.685100 32.067440 14.895670 -5.091174 0.998907 -8.138633 22.465256 1.191940 -13.161545 -14.838475 -0.011300 0.685600 -1.884100 1.101654 -1.782207 -5.280318 -3.265856 -1.212249 -2.864788 4.722571 -8.910188 13.639701 -1.711400 -3.501800 12.043000 -102.750056 9.667976 -1.015525 25.115879 -33.748437 -5.362564 -0.073512 4.501872 17.147994 -7.125000 0.000000 0.000000 92.344739 -3.503191 5.717055 -21.294874 30.811873 -3.948105 -1.423035 -2.032741 39.399520 7.125000 0.000000 0.000000 
